<svg class="plot-d6a7b5" fill="currentColor" font-family="system-ui, sans-serif" font-size="10" text-anchor="middle" width="640" height="300" viewBox="0 0 640 300" style="" xmlns="http://www.w3.org/2000/svg" xmlns:xlink="http://www.w3.org/1999/xlink"><style>:where(.plot-d6a7b5) {
  --plot-background: white;
  display: block;
  height: auto;
  height: intrinsic;
  max-width: 100%;
}
:where(.plot-d6a7b5 text),
:where(.plot-d6a7b5 tspan) {
  white-space: pre;
}</style><g aria-label="x-axis tick" aria-hidden="true" fill="none" stroke="currentColor" transform="translate(0.5,0)"><path transform="translate(98.21522309711287,270)" d="M0,0L0,6"/><path transform="translate(163.8320209973753,270)" d="M0,0L0,6"/><path transform="translate(229.4488188976378,270)" d="M0,0L0,6"/><path transform="translate(295.06561679790025,270)" d="M0,0L0,6"/><path transform="translate(360.68241469816275,270)" d="M0,0L0,6"/><path transform="translate(426.29921259842513,270)" d="M0,0L0,6"/><path transform="translate(491.9160104986877,270)" d="M0,0L0,6"/><path transform="translate(557.5328083989501,270)" d="M0,0L0,6"/></g><g aria-label="x-axis tick label" font-variant="tabular-nums" transform="translate(0.5,9.5)"><text y="0.71em" transform="translate(98.21522309711287,270)">1,300</text><text y="0.71em" transform="translate(163.8320209973753,270)">1,400</text><text y="0.71em" transform="translate(229.4488188976378,270)">1,500</text><text y="0.71em" transform="translate(295.06561679790025,270)">1,600</text><text y="0.71em" transform="translate(360.68241469816275,270)">1,700</text><text y="0.71em" transform="translate(426.29921259842513,270)">1,800</text><text y="0.71em" transform="translate(491.9160104986877,270)">1,900</text><text y="0.71em" transform="translate(557.5328083989501,270)">2,000</text></g><g aria-label="x-axis label" text-anchor="end" transform="translate(17.5,27.5)"><text transform="translate(620,270)">date_de_creation →</text></g><g aria-label="image" transform="translate(0.5,0.5)"><image x="520" y="169" width="100" height="100" href="https://i.pinimg.com/736x/a6/ee/52/a6ee52bbf1979458746de3b0415260bf.jpg" preserveAspectRatio="xMidYMin slice" clip-path="circle(50px)"><title>Université Paris-Saclay</title></image><image x="20" y="169" width="100" height="100" href="https://i.pinimg.com/736x/bf/2b/0a/bf2b0a7a16b932a7c6e34a37a317e49a.jpg" preserveAspectRatio="xMidYMin slice" clip-path="circle(50px)"><title>Sorbonne Université</title></image><image x="258.84514435695536" y="169" width="100" height="100" href="https://i.pinimg.com/736x/c4/4c/d4/c44cd4ae8017e0f8bd5110c5a8071998.jpg" preserveAspectRatio="xMidYMin slice" clip-path="circle(50px)"><title>Université de Strasbourg</title></image></g></svg>